<svg width="120" height="36" xmlns="http://www.w3.org/2000/svg" xmlns:xlink="http://www.w3.org/1999/xlink" xml:space="preserve" overflow="hidden"><g transform="translate(-73 -132)"><path d="M95.4372 167.432C92.3052 167.432 90.6852 165.218 90.2532 161.816L90.0912 160.628C89.4432 164.03 86.2032 167.54 81.2352 167.54 76.6452 167.54 73.4592 164.57 73.4592 160.574 73.4592 156.956 76.0512 154.364 80.8572 153.932L89.0652 153.284 88.6872 150.53C88.0392 145.616 85.8252 142.376 81.7212 142.376 78.5352 142.376 76.1592 144.374 74.9712 147.236L74.2692 147.074C75.2952 143.24 79.1832 139.082 84.6912 139.082 90.1452 139.082 93.6012 142.646 94.4112 149.072L95.9772 161.006C96.3012 163.328 97.2192 164.03 98.1372 164.03 98.8932 164.03 99.4332 163.382 99.5952 162.464L100.243 162.518C100.135 164.84 98.4612 167.432 95.4372 167.432ZM78.9132 159.386C78.9132 161.978 80.8032 164.354 84.0972 164.354 87.5532 164.354 89.6592 161.87 89.9292 159.386L89.1732 154.094 83.8812 154.526C80.5872 154.85 78.9132 156.794 78.9132 159.386ZM109.819 167.54C104.527 167.54 102.043 163.598 102.043 158.522L102.043 141.782 98.6409 141.782 98.6409 141.026C102.961 140.594 106.309 137.84 107.173 132.926L107.929 132.926 107.929 139.622 115.975 139.622 115.057 141.782 107.929 141.782 107.929 157.928C107.929 161.546 109.549 164.138 112.249 164.138 114.571 164.138 115.921 162.248 116.353 160.25L117.001 160.358C116.515 164.246 113.707 167.54 109.819 167.54ZM130.4 167.54C122.732 167.54 116.684 161.276 116.684 153.176 116.684 144.644 122.948 139.082 130.292 139.082 137.744 139.082 143.9 145.022 143.9 153.284 143.9 161.708 137.906 167.54 130.4 167.54ZM123.002 154.364C123.974 161.87 127.592 167.054 132.074 166.46 136.61 165.866 138.554 159.602 137.528 151.988 136.556 144.482 132.938 139.514 128.564 140.162 124.028 140.81 122.084 147.02 123.002 154.364ZM178.589 167 178.589 166.298C181.235 166.298 183.125 165.272 182.639 161.6L180.911 149.234C180.263 144.698 178.373 142.322 175.295 142.322 172.109 142.322 170.327 144.86 169.949 147.722 170.003 148.262 170.057 148.856 170.057 149.45L170.057 161.546C170.057 165.272 171.677 166.298 173.837 166.298L173.837 167 160.661 167 160.661 166.298C162.767 166.298 164.279 165.272 164.279 161.546L164.279 150.368C164.279 145.13 162.173 142.268 158.609 142.268 155.639 142.268 153.371 144.752 153.047 147.344L153.047 161.546C153.047 165.272 154.559 166.298 156.665 166.298L156.665 167 143.435 167 143.435 166.298C145.595 166.298 147.215 165.272 147.215 161.546L147.215 145.508C147.215 142.862 146.135 141.998 143.651 141.944L143.651 141.242C146.513 141.026 149.753 140.432 152.561 139.136L153.047 139.406 153.047 145.184C154.127 142.052 157.205 139.082 161.201 139.082 165.197 139.082 168.545 141.512 169.679 145.994 170.543 142.376 173.567 139.082 177.941 139.082 182.585 139.082 185.771 141.998 186.797 149.072L188.633 161.6C189.173 165.272 190.739 166.298 192.953 166.298L192.953 167 178.589 167Z" fill="#212024"/></g></svg>